<?xml version="1.0" encoding="utf-8"?>
<!-- Generator: Adobe Illustrator 23.0.2, SVG Export Plug-In . SVG Version: 6.00 Build 0)  -->
<svg version="1.1" id="Слой_1" xmlns="http://www.w3.org/2000/svg" xmlns:xlink="http://www.w3.org/1999/xlink" x="0px" y="0px"
	 viewBox="0 0 89.7 82.9" style="enable-background:new 0 0 89.7 82.9;" xml:space="preserve">
<style type="text/css">
	.st0{fill:none;stroke:#000001;stroke-width:1.5;stroke-miterlimit:10;}
	.st1{fill:none;stroke:#060809;stroke-width:1.5;stroke-miterlimit:10;}
</style>
<g>
	<path class="st0" d="M46.5,8c-2.3,0-12.4,0-21.1,7.8c-8.2,7.3-9.7,16.7-10,19.1h6.2l-9.7,9.7l-9.9-9.9l6.2,0
		C11.2,15.3,28,0.9,48.2,0.9c22.4,0,40.6,18.2,40.6,40.6S70.6,82.1,48.2,82.1c-19.4,0-35.7-13.6-39.7-31.8"/>
	<g>
		<polygon class="st1" points="48.5,19.5 26.3,33 26.3,34.6 70.8,34.6 70.8,32.9 		"/>
		<path class="st1" d="M68.2,34.6v1.8c0,0.6-0.5,1-1.1,1H30.1c-0.6,0-1.1-0.5-1.1-1v-1.8"/>
		<path class="st1" d="M70.9,61.6H26v0c0-2,1.6-3.6,3.6-3.6h37.8C69.3,58,70.9,59.6,70.9,61.6L70.9,61.6z"/>
		<path class="st1" d="M29,58v-1.6c0-0.5,0.4-1,1-1h37.2c0.6,0,1,0.4,1,1V58"/>
		<line class="st1" x1="32.8" y1="37.4" x2="32.8" y2="55.4"/>
		<line class="st1" x1="39.4" y1="37.4" x2="39.4" y2="55.4"/>
		<line class="st1" x1="45.6" y1="37.4" x2="45.6" y2="55.4"/>
		<line class="st1" x1="51.8" y1="37.4" x2="51.8" y2="55.4"/>
		<line class="st1" x1="58.4" y1="37.4" x2="58.4" y2="55.4"/>
		<line class="st1" x1="64.5" y1="37.4" x2="64.5" y2="55.4"/>
		<ellipse class="st1" cx="48.7" cy="27.5" rx="3.6" ry="3.5"/>
	</g>
</g>
</svg>
