<?xml version="1.0" encoding="utf-8"?>
<!-- Generator: Adobe Illustrator 23.0.2, SVG Export Plug-In . SVG Version: 6.00 Build 0)  -->
<svg version="1.1" id="Слой_1" xmlns="http://www.w3.org/2000/svg" xmlns:xlink="http://www.w3.org/1999/xlink" x="0px" y="0px"
	 viewBox="0 0 243.8 243.8" style="enable-background:new 0 0 243.8 243.8;" xml:space="preserve">
<style type="text/css">
	.st0{fill:#25A35B;}
	.st1{fill:#FFFFFF;}
</style>
<g id="Слой_4">
	<rect class="st0" width="243.8" height="243.8"/>
</g>
<g id="Слой_3__x28_копия_x29_">
	<g>
		<path class="st1" d="M40.6,140.2h1c0.8-1.6,1.6-3.3,2.1-5.2s0.9-3.9,1.1-5.8h6.6v11h1.7v5.3h-2V142h-8.5v3.5h-2
			C40.6,145.5,40.6,140.2,40.6,140.2z M46.6,131c-0.1,1.3-0.5,2.9-1,4.6s-1.1,3.3-1.8,4.6h5.6V131H46.6z"/>
		<path class="st1" d="M63.5,134.8c0,1.1-0.7,1.8-2,2.1v0.1c0.8,0.1,1.3,0.3,1.7,0.7s0.6,0.9,0.6,1.5c0,0.9-0.4,1.6-1.1,2.1
			s-1.7,0.7-3,0.7H55v-9.7h4.6C62.2,132.3,63.5,133.1,63.5,134.8z M61.4,134.9c0-0.4-0.2-0.7-0.5-0.8s-0.8-0.3-1.3-0.3h-2.5v2.3h2.2
			c0.7,0,1.2-0.1,1.6-0.3S61.4,135.4,61.4,134.9z M61.6,139c0-0.5-0.2-0.8-0.5-1s-0.9-0.3-1.6-0.3h-2.4v2.8h2.4
			C60.9,140.5,61.6,140,61.6,139z"/>
		<path class="st1" d="M72,142l-0.4-1.4h-0.1c-0.5,0.6-0.9,1-1.4,1.2s-1.1,0.3-1.8,0.3c-1,0-1.7-0.3-2.2-0.8s-0.8-1.2-0.8-2.2
			s0.4-1.8,1.1-2.3s1.9-0.8,3.4-0.8l1.7-0.1v-0.5c0-0.6-0.1-1.1-0.4-1.4s-0.7-0.5-1.3-0.5c-0.5,0-1,0.1-1.4,0.2s-0.9,0.3-1.3,0.5
			l-0.7-1.5c0.5-0.3,1.1-0.5,1.7-0.6s1.2-0.2,1.8-0.2c1.2,0,2.2,0.3,2.8,0.8s0.9,1.4,0.9,2.5v6.5H72V142z M68.9,140.6
			c0.8,0,1.4-0.2,1.8-0.6s0.7-1,0.7-1.8v-0.8l-1.2,0.1c-1,0-1.7,0.2-2.1,0.5s-0.7,0.7-0.7,1.3c0,0.4,0.1,0.8,0.4,1
			S68.4,140.6,68.9,140.6z"/>
		<path class="st1" d="M88.3,132.3v1.6h-3.2v8.1H83v-8.1h-3.2v-1.6H88.3z"/>
		<path class="st1" d="M92.2,132.3v5c0,0.6,0,1.4-0.1,2.6l4.9-7.5h2.5v9.7h-2v-4.9c0-0.3,0-0.7,0-1.3s0.1-1,0.1-1.3l-4.9,7.5h-2.5
			v-9.7h2V132.3z"/>
		<path class="st1" d="M110.9,132.3v9.7h-2.1v-8.1h-4.4v8.1h-2.1v-9.7H110.9z"/>
		<path class="st1" d="M119.9,142l-0.4-1.4h-0.1c-0.5,0.6-0.9,1-1.4,1.2s-1.1,0.3-1.8,0.3c-1,0-1.7-0.3-2.2-0.8s-0.8-1.2-0.8-2.2
			s0.4-1.8,1.1-2.3s1.9-0.8,3.4-0.8l1.7-0.1v-0.5c0-0.6-0.1-1.1-0.4-1.4s-0.7-0.5-1.3-0.5c-0.5,0-1,0.1-1.4,0.2s-0.9,0.3-1.3,0.5
			l-0.7-1.5c0.5-0.3,1.1-0.5,1.7-0.6s1.2-0.2,1.8-0.2c1.2,0,2.2,0.3,2.8,0.8s0.9,1.4,0.9,2.5v6.5h-1.6V142z M116.8,140.6
			c0.8,0,1.4-0.2,1.8-0.6s0.7-1,0.7-1.8v-0.8l-1.2,0.1c-1,0-1.7,0.2-2.1,0.5s-0.7,0.7-0.7,1.3c0,0.4,0.1,0.8,0.4,1
			S116.3,140.6,116.8,140.6z"/>
		<path class="st1" d="M135,132.3h2.3l-4,4.7l4.4,5h-2.4l-4.2-4.9v4.9H129v-9.7h2.1v4.7L135,132.3z"/>
		<path class="st1" d="M141,142.2c-1.1,0-2-0.2-2.8-0.6v-1.7c0.9,0.4,1.8,0.6,2.7,0.6c1.7,0,2.6-0.9,2.7-2.8h-4.3v-1.5h4.3
			c-0.1-0.9-0.3-1.5-0.7-1.9s-1-0.6-1.8-0.6c-0.6,0-1.3,0.2-2.3,0.5l-0.6-1.5c0.4-0.2,0.8-0.3,1.4-0.4s1-0.2,1.5-0.2
			c1.5,0,2.7,0.4,3.4,1.3s1.1,2.1,1.1,3.7s-0.4,2.9-1.2,3.8S142.6,142.2,141,142.2z"/>
		<path class="st1" d="M162,142h-13.8v-9.7h2.1v8.1h3.8v-8.1h2.1v8.1h3.8v-8.1h2.1v9.7H162z"/>
		<path class="st1" d="M164.4,136.2c0-2.2,0.4-3.8,1.1-5s1.9-1.9,3.5-2.3c1.2-0.2,2.6-0.5,4.2-0.7l0.3,1.8c-1.9,0.3-3.3,0.5-4.2,0.7
			s-1.6,0.5-2,1.1s-0.6,1.5-0.7,2.6h0.1c0.3-0.5,0.8-0.9,1.3-1.1s1.1-0.4,1.7-0.4c1.2,0,2.1,0.4,2.8,1.1s1,1.8,1,3.2
			c0,1.6-0.4,2.8-1.2,3.6s-1.9,1.3-3.4,1.3c-1.4,0-2.5-0.5-3.3-1.6S164.4,138.1,164.4,136.2z M169.1,140.5c1.5,0,2.3-1,2.3-3
			c0-1.9-0.7-2.9-2.1-2.9c-0.4,0-0.8,0.1-1.1,0.2s-0.7,0.4-1,0.7s-0.5,0.5-0.7,0.8c0,1.4,0.2,2.4,0.7,3.1S168.2,140.5,169.1,140.5z"
			/>
		<path class="st1" d="M177.8,142.2c-1.1,0-2-0.2-2.8-0.6v-1.7c0.9,0.4,1.8,0.6,2.7,0.6c1.7,0,2.6-0.9,2.7-2.8h-4.3v-1.5h4.3
			c-0.1-0.9-0.3-1.5-0.7-1.9s-1-0.6-1.8-0.6c-0.6,0-1.3,0.2-2.3,0.5l-0.6-1.5c0.4-0.2,0.8-0.3,1.4-0.4s1-0.2,1.5-0.2
			c1.5,0,2.7,0.4,3.4,1.3s1.1,2.1,1.1,3.7s-0.4,2.9-1.2,3.8S179.3,142.2,177.8,142.2z"/>
		<path class="st1" d="M191,132.3h2.3l-4,4.7l4.4,5h-2.4l-4.2-4.9v4.9H185v-9.7h2.1v4.7L191,132.3z"/>
		<path class="st1" d="M201.3,142l-0.4-1.4h-0.1c-0.5,0.6-0.9,1-1.4,1.2s-1.1,0.3-1.8,0.3c-1,0-1.7-0.3-2.2-0.8s-0.8-1.2-0.8-2.2
			s0.4-1.8,1.1-2.3s1.9-0.8,3.4-0.8l1.7-0.1v-0.5c0-0.6-0.1-1.1-0.4-1.4s-0.7-0.5-1.3-0.5c-0.5,0-1,0.1-1.4,0.2s-0.9,0.3-1.3,0.5
			l-0.7-1.5c0.5-0.3,1.1-0.5,1.7-0.6s1.2-0.2,1.8-0.2c1.2,0,2.2,0.3,2.8,0.8s0.9,1.4,0.9,2.5v6.5h-1.6V142z M198.2,140.6
			c0.8,0,1.4-0.2,1.8-0.6s0.7-1,0.7-1.8v-0.8l-1.2,0.1c-1,0-1.7,0.2-2.1,0.5s-0.7,0.7-0.7,1.3c0,0.4,0.1,0.8,0.4,1
			S197.7,140.6,198.2,140.6z"/>
		<path class="st1" d="M84.7,171.4h-1.9V168h-6.7v3.4h-1.9v-5H75c0.7-1,1.2-2.2,1.6-3.6s0.6-2.9,0.7-4.5h5.9v8.1h1.4L84.7,171.4
			L84.7,171.4z M81.3,166.4v-6.5h-2.1c-0.1,1.2-0.3,2.4-0.7,3.6s-0.8,2.2-1.3,3h4.1V166.4z"/>
		<path class="st1" d="M90.8,168.2c-1.5,0-2.7-0.4-3.5-1.3s-1.3-2.1-1.3-3.6c0-1.6,0.4-2.8,1.2-3.7s1.9-1.4,3.3-1.4
			c1.3,0,2.3,0.4,3,1.2s1.1,1.9,1.1,3.2v1.1h-6.5c0,0.9,0.3,1.7,0.8,2.2s1.2,0.8,2,0.8c0.6,0,1.1-0.1,1.6-0.2s1-0.3,1.6-0.5v1.7
			c-0.5,0.2-1,0.4-1.5,0.5S91.4,168.2,90.8,168.2z M90.4,159.7c-0.7,0-1.2,0.2-1.6,0.6s-0.6,1-0.7,1.8h4.4c0-0.8-0.2-1.4-0.6-1.8
			S91,159.7,90.4,159.7z"/>
		<path class="st1" d="M98.9,158.3v5c0,0.6,0,1.4-0.1,2.6l4.9-7.5h2.5v9.7h-2v-4.9c0-0.3,0-0.7,0-1.3s0.1-1,0.1-1.3l-4.9,7.5h-2.5
			v-9.7h2V158.3z M101.4,157.1c-1.2,0-2.2-0.2-2.7-0.7s-0.9-1.2-1-2.2h1.9c0,0.4,0.1,0.8,0.2,1s0.3,0.4,0.5,0.5s0.6,0.2,1.1,0.2
			c0.6,0,1-0.1,1.3-0.4s0.5-0.7,0.5-1.3h1.9c-0.1,1-0.4,1.7-1.1,2.2S102.7,157.1,101.4,157.1z"/>
		<path class="st1" d="M113,168.2c-1.5,0-2.6-0.4-3.4-1.3s-1.1-2.1-1.1-3.7c0-1.6,0.4-2.9,1.2-3.8s2-1.3,3.5-1.3
			c1,0,1.9,0.2,2.8,0.6l-0.6,1.7c-0.9-0.3-1.6-0.5-2.2-0.5c-1.7,0-2.5,1.1-2.5,3.3c0,1.1,0.2,1.9,0.6,2.5s1,0.8,1.8,0.8
			c0.9,0,1.8-0.2,2.6-0.7v1.8c-0.4,0.2-0.8,0.4-1.2,0.5S113.6,168.2,113,168.2z"/>
		<path class="st1" d="M125.3,158.3v1.6h-3.2v8.1H120v-8.1h-3.2v-1.6H125.3z"/>
		<path class="st1" d="M135.6,160.8c0,1.1-0.7,1.8-2,2.1v0.1c0.8,0.1,1.3,0.3,1.7,0.7s0.6,0.9,0.6,1.5c0,0.9-0.4,1.6-1.1,2.1
			s-1.7,0.7-3.1,0.7h-4.6v-9.7h4.6C134.3,158.3,135.6,159.1,135.6,160.8z M133.5,160.9c0-0.4-0.2-0.7-0.5-0.8s-0.8-0.3-1.3-0.3h-2.5
			v2.3h2.2c0.7,0,1.2-0.1,1.6-0.3S133.5,161.4,133.5,160.9z M133.8,165c0-0.5-0.2-0.8-0.5-1s-0.9-0.3-1.6-0.3h-2.4v2.8h2.4
			C133.1,166.5,133.8,166,133.8,165z"/>
		<path class="st1" d="M136.6,158.3h2.3l2,5.5c0.3,0.8,0.5,1.5,0.6,2.2h0.1c0.1-0.3,0.1-0.7,0.3-1.2s0.9-2.6,2.2-6.6h2.2l-4.2,11
			c-0.8,2-2,3-3.8,3c-0.5,0-0.9,0-1.3-0.1v-1.6c0.3,0.1,0.7,0.1,1.1,0.1c1,0,1.7-0.6,2.1-1.7l0.4-0.9L136.6,158.3z"/>
		<path class="st1" d="M160.7,163.1c0,1.6-0.4,2.8-1.2,3.7s-1.9,1.3-3.2,1.3s-2.3-0.4-3-1.1s-1.2-1.8-1.3-3.2h-2.1v4.2h-2.1v-9.7
			h2.1v3.9h2.2c0.1-1.3,0.6-2.3,1.4-3s1.8-1.1,3-1.1c1.3,0,2.4,0.5,3.2,1.4S160.7,161.6,160.7,163.1z M154,163.1
			c0,1.1,0.2,1.9,0.5,2.5s0.9,0.9,1.7,0.9s1.4-0.3,1.7-0.9s0.5-1.4,0.5-2.5s-0.2-1.9-0.5-2.5s-0.9-0.8-1.7-0.8s-1.4,0.3-1.7,0.8
			S154,162,154,163.1z"/>
		<path class="st1" d="M170.4,158.3v1.6h-3.2v8.1h-2.1v-8.1H162v-1.6H170.4z"/>
		<path class="st1" d="M61.9,189.1c0,1.6-0.4,2.8-1.2,3.7s-1.9,1.3-3.4,1.3c-0.9,0-1.7-0.2-2.4-0.6s-1.2-1-1.6-1.8s-0.6-1.7-0.6-2.7
			c0-1.6,0.4-2.8,1.2-3.7s1.9-1.3,3.4-1.3c1.4,0,2.5,0.5,3.3,1.4S61.9,187.6,61.9,189.1z M54.8,189.1c0,2.2,0.8,3.4,2.5,3.4
			c1.6,0,2.5-1.1,2.5-3.4c0-2.2-0.8-3.3-2.5-3.3c-0.9,0-1.5,0.3-1.9,0.9S54.8,188,54.8,189.1z"/>
		<path class="st1" d="M73.6,197.4h-1.9V194H65v3.4h-1.9v-5h0.8c0.7-1,1.2-2.2,1.6-3.6s0.6-2.9,0.7-4.5h5.9v8.1h1.4L73.6,197.4
			L73.6,197.4z M70.1,192.4v-6.5H68c-0.1,1.2-0.3,2.4-0.7,3.6s-0.8,2.2-1.3,3h4.1V192.4z"/>
		<path class="st1" d="M77.4,184.3v3.9H82v-3.9h2.1v9.7H82v-4.2h-4.6v4.2h-2.1v-9.7H77.4z"/>
		<path class="st1" d="M95.7,189.1c0,1.6-0.4,2.8-1.2,3.7s-1.9,1.3-3.4,1.3c-0.9,0-1.7-0.2-2.4-0.6s-1.2-1-1.6-1.8s-0.6-1.7-0.6-2.7
			c0-1.6,0.4-2.8,1.2-3.7s1.9-1.3,3.4-1.3c1.4,0,2.5,0.5,3.3,1.4S95.7,187.6,95.7,189.1z M88.6,189.1c0,2.2,0.8,3.4,2.5,3.4
			c1.6,0,2.5-1.1,2.5-3.4c0-2.2-0.8-3.3-2.5-3.3c-0.9,0-1.5,0.3-1.9,0.9S88.6,188,88.6,189.1z"/>
		<path class="st1" d="M106.5,186.8c0,1.1-0.7,1.8-2,2.1v0.1c0.8,0.1,1.3,0.3,1.7,0.7s0.6,0.9,0.6,1.5c0,0.9-0.4,1.6-1.1,2.1
			s-1.7,0.7-3.1,0.7H98v-9.7h4.6C105.2,184.3,106.5,185.1,106.5,186.8z M104.4,186.9c0-0.4-0.2-0.7-0.5-0.8s-0.8-0.3-1.3-0.3h-2.5
			v2.3h2.2c0.7,0,1.2-0.1,1.6-0.3S104.4,187.4,104.4,186.9z M104.7,191c0-0.5-0.2-0.8-0.5-1s-0.9-0.3-1.6-0.3h-2.4v2.8h2.4
			C104,192.5,104.7,192,104.7,191z"/>
		<path class="st1" d="M113.8,194.2c-1.2,0-2.2-0.4-2.9-1.3h-0.1c0.1,0.8,0.1,1.3,0.1,1.5v4h-2.1v-14h1.7c0,0.2,0.1,0.6,0.3,1.3h0.1
			c0.6-1,1.6-1.5,2.9-1.5c1.2,0,2.2,0.4,2.8,1.3s1,2.1,1,3.7s-0.3,2.8-1,3.7S115.1,194.2,113.8,194.2z M113.3,185.8
			c-0.8,0-1.4,0.2-1.8,0.7s-0.6,1.2-0.6,2.3v0.3c0,1.2,0.2,2,0.6,2.6s1,0.8,1.8,0.8c0.7,0,1.3-0.3,1.7-0.9s0.6-1.4,0.6-2.5
			s-0.2-1.9-0.6-2.5S114.1,185.8,113.3,185.8z"/>
		<path class="st1" d="M124.4,194.2c-1.5,0-2.7-0.4-3.5-1.3s-1.3-2.1-1.3-3.6c0-1.6,0.4-2.8,1.2-3.7s1.9-1.4,3.3-1.4
			c1.3,0,2.3,0.4,3,1.2s1.1,1.9,1.1,3.2v1.1h-6.5c0,0.9,0.3,1.7,0.8,2.2s1.2,0.8,2,0.8c0.6,0,1.1-0.1,1.6-0.2s1-0.3,1.6-0.5v1.7
			c-0.5,0.2-1,0.4-1.5,0.5S125,194.2,124.4,194.2z M124,185.7c-0.7,0-1.2,0.2-1.6,0.6s-0.6,1-0.7,1.8h4.4c0-0.8-0.2-1.4-0.6-1.8
			S124.7,185.7,124,185.7z"/>
		<path class="st1" d="M136.1,192l0.1-0.4c0.2-0.9,0.4-1.5,0.6-2l2.2-5.3h2.8v9.7h-1.9v-7.8l-0.2,0.5c-0.3,0.9-0.5,1.6-0.7,2.1
			l-2.1,5.2h-1.6l-2.1-5.3c-0.3-0.8-0.6-1.6-0.8-2.6v7.8h-1.9v-9.7h2.7l2.1,5.2C135.5,189.9,135.8,190.8,136.1,192z"/>
		<path class="st1" d="M148.9,194.2c-1.5,0-2.7-0.4-3.5-1.3s-1.3-2.1-1.3-3.6c0-1.6,0.4-2.8,1.2-3.7s1.9-1.4,3.3-1.4
			c1.3,0,2.3,0.4,3,1.2s1.1,1.9,1.1,3.2v1.1h-6.5c0,0.9,0.3,1.7,0.8,2.2s1.2,0.8,2,0.8c0.6,0,1.1-0.1,1.6-0.2s1-0.3,1.6-0.5v1.7
			c-0.5,0.2-1,0.4-1.5,0.5S149.6,194.2,148.9,194.2z M148.6,185.7c-0.7,0-1.2,0.2-1.6,0.6s-0.6,1-0.7,1.8h4.4c0-0.8-0.2-1.4-0.6-1.8
			S149.2,185.7,148.6,185.7z"/>
		<path class="st1" d="M157.1,184.3v3.9h4.6v-3.9h2.1v9.7h-2.1v-4.2h-4.6v4.2H155v-9.7H157.1z"/>
		<path class="st1" d="M168.8,184.3v3.9h4.6v-3.9h2.1v9.7h-2.1v-4.2h-4.6v4.2h-2.1v-9.7H168.8z"/>
		<path class="st1" d="M187,189.1c0,1.6-0.4,2.8-1.2,3.7s-1.9,1.3-3.4,1.3c-0.9,0-1.7-0.2-2.4-0.6s-1.2-1-1.6-1.8s-0.6-1.7-0.6-2.7
			c0-1.6,0.4-2.8,1.2-3.7s1.9-1.3,3.4-1.3c1.4,0,2.5,0.5,3.3,1.4S187,187.6,187,189.1z M179.9,189.1c0,2.2,0.8,3.4,2.5,3.4
			c1.6,0,2.5-1.1,2.5-3.4c0-2.2-0.8-3.3-2.5-3.3c-0.9,0-1.5,0.3-1.9,0.9S179.9,188,179.9,189.1z"/>
		<path class="st1" d="M189.1,192.9c0-0.4,0.1-0.8,0.3-1s0.6-0.3,1-0.3s0.7,0.1,1,0.4s0.3,0.6,0.3,1s-0.1,0.7-0.3,1s-0.5,0.4-1,0.4
			c-0.4,0-0.7-0.1-1-0.4S189.1,193.3,189.1,192.9z M191.2,190.1h-1.5l-0.5-8.9h2.4L191.2,190.1z"/>
	</g>
</g>
</svg>
