<?xml version="1.0" encoding="utf-8"?>
<!-- Generator: Adobe Illustrator 23.0.2, SVG Export Plug-In . SVG Version: 6.00 Build 0)  -->
<svg version="1.1" id="Слой_1" xmlns="http://www.w3.org/2000/svg" xmlns:xlink="http://www.w3.org/1999/xlink" x="0px" y="0px"
	 viewBox="0 0 384.6 64" style="enable-background:new 0 0 384.6 64;" xml:space="preserve">
<style type="text/css">
	.st0{fill:#0065A4;}
	.st1{fill:#00A94F;}
	.st2{fill-rule:evenodd;clip-rule:evenodd;fill:#0065A4;}
	.st3{fill-rule:evenodd;clip-rule:evenodd;fill:#00A94F;}
</style>
<g>
	<g>
		<path class="st0" d="M108.2,45.2c-7.5,0-12.8-6.2-12.8-13.8c0-7.7,5.4-13.9,12.8-13.9c4.5,0,7.8,1.9,10.9,4.8l4.4-5.1
			c-3.7-3.6-8.1-6.1-15.2-6.1c-11.8,0-20.1,9.1-20.1,20.1c0,11.3,8.5,20.1,19.8,20.1c7.3,0,11.7-2.7,15.8-6.9l-4.4-4.4
			C116,43.3,113,45.2,108.2,45.2z"/>
		<path class="st0" d="M149,35.5c2.5-1.1,4.7-3,4.7-6.7c0-4.5-3.8-7.3-9.7-7.3H129v29.4h15.2c6.7,0,10.8-3,10.8-8
			C155.1,38.7,152.6,36.5,149,35.5z M135.6,26.6h7c3,0,4.3,1.4,4.3,3.3c0,2.1-1.6,3.6-4.4,3.6h-6.9V26.6z M143.3,45.5h-7.6v-7.3h7.3
			c3.6,0,5.3,1.4,5.3,3.6C148.3,44,146.5,45.5,143.3,45.5z"/>
		<path class="st0" d="M159.9,31c0,6,3.7,7.9,7.7,9.1l-9.7,10.7h8.1l8.6-9.9h4.9v9.9h6.7V21.5h-14.7C164,21.5,159.9,25.3,159.9,31z
			 M179.4,26.9v9h-7.1c-3.4,0-5.8-1.7-5.8-4.5c0-2.8,2.2-4.5,5.7-4.5H179.4z"/>
		<path class="st0" d="M209.9,35.4c2.6-1.1,4.6-3.1,4.6-6.7c0-4.6-4.5-7.9-11-7.9c-4.8,0-9,1.6-12,4.2l3,4.2c2.2-1.9,5.3-3,8.3-3
			c2.8,0,4.8,1.3,4.8,3.3c0,2.2-2,3.8-5.2,3.8H199v4.8h3.6c3.8,0,6,1.5,6,3.7c0,2.4-2.5,4.1-5.6,4.1c-3.3,0-6.6-1.3-9.2-3.5
			l-3.2,4.5c3.5,2.9,7.6,4.5,12.9,4.5c7.1,0,11.8-4,11.8-9C215.3,38.8,213.1,36.5,209.9,35.4z"/>
		<path class="st0" d="M234,31.7h-6.7V21.5h-6.7v29.4h14c6.9,0,11.2-3.7,11.2-9.8C245.7,34.6,240.6,31.7,234,31.7z M233.6,45.4h-6.3
			V37h6.2c3.4,0,5.5,1.4,5.5,4.1C239,43.9,237,45.4,233.6,45.4z"/>
	</g>
	<g>
		<path class="st1" d="M270,27h-10.8v-9h22.3v-6.2h-29v38.9h17.3c8.9,0,14.5-4.2,14.5-12C284.1,31.3,278.6,27,270,27z M268.2,44.7
			h-9V32.8h10.2c5.1,0,7.9,1.9,7.9,5.7C277.3,43.3,274.1,44.7,268.2,44.7z"/>
		<path class="st1" d="M301.7,21c-4.8,0-8,1-11.2,2.4l1.8,5.4c2.7-1.1,5.1-1.8,8.4-1.8c4.7,0,7.2,2.2,7.2,6.3v0.6
			c-2.3-0.7-4.6-1.2-8.1-1.2c-6.8,0-11.9,3.1-11.9,9.6c0,6,4.9,9.2,10.5,9.2c4.4,0,7.5-1.8,9.5-4.2v3.6h6.7V33.4
			C314.6,25.6,310.4,21,301.7,21z M308.1,40.2c0,3.7-3.3,6.2-7.8,6.2c-3.2,0-5.7-1.6-5.7-4.3c0-2.9,2.5-4.7,6.7-4.7
			c2.6,0,5,0.5,6.7,1.2V40.2z"/>
		<polygon class="st1" points="341.7,33.4 328.7,33.4 328.7,21.5 322,21.5 322,50.8 328.7,50.8 328.7,39 341.7,39 341.7,50.8 
			348.4,50.8 348.4,21.5 341.7,21.5 		"/>
		<polygon class="st1" points="372.3,33.8 383.7,21.5 375.8,21.5 363,35.5 363,21.5 356.3,21.5 356.3,50.8 363,50.8 363,43.8 
			367.8,38.7 376.7,50.8 384.6,50.8 		"/>
	</g>
	<path class="st2" d="M20.8,42.2c-0.1-11-9.2-20-20.3-20c-0.1,0-0.2,0.1-0.3,0.1C0.7,33.2,9.6,42,20.8,42.2z"/>
	<path class="st3" d="M0.4,63.2H0.1V64h48c11.6,0,21.1-9.4,21.1-21.1c0-0.1,0-0.1,0-0.2h-48C21.1,54,11.9,63.2,0.4,63.2z"/>
	<path class="st2" d="M21.2,0.1C9.5,0.1,0.1,9.5,0.1,21.2c0,0.1,0,0.1,0,0.2h48C48.2,10,57.4,0.9,68.8,0.9h0.5V0.1H21.2z"/>
	<path class="st3" d="M48.4,21.9c0.1,11,9.2,20,20.3,20h0.5C68.6,30.7,59.6,22.1,48.4,21.9z"/>
</g>
</svg>
