<?xml version="1.0" encoding="utf-8"?>
<!-- Generator: Adobe Illustrator 23.0.2, SVG Export Plug-In . SVG Version: 6.00 Build 0)  -->
<svg version="1.1" id="Слой_1" xmlns="http://www.w3.org/2000/svg" xmlns:xlink="http://www.w3.org/1999/xlink" x="0px" y="0px"
	 viewBox="0 0 89.7 82.9" style="enable-background:new 0 0 89.7 82.9;" xml:space="preserve">
<style type="text/css">
	.st0{fill:none;stroke:#000001;stroke-width:1.5;stroke-miterlimit:10;}
</style>
<g>
	<path class="st0" d="M46.5,8c-2.3,0-12.4,0-21.1,7.8c-8.2,7.3-9.7,16.7-10,19.1h6.2l-9.7,9.7L2,34.7h6.2c3-19.4,19.8-33.8,40-33.8
		c22.4,0,40.6,18.2,40.6,40.6S70.6,82.1,48.2,82.1c-19.4,0-35.7-13.6-39.7-31.8"/>
</g>
<polyline class="st0" points="65,44 65,62.6 33.7,62.6 33.7,43.9 "/>
<path class="st0" d="M33.7,34.1V26c0-0.8,0.6-1.4,1.4-1.4h28.7c0.8,0,1.4,0.6,1.4,1.4v8.4"/>
<line class="st0" x1="58.8" y1="56.2" x2="65" y2="56.2"/>
<line class="st0" x1="46.4" y1="56.2" x2="52.4" y2="56.2"/>
<line class="st0" x1="33.6" y1="56.2" x2="43.6" y2="56.2"/>
<polyline class="st0" points="58.8,62.6 58.8,49.8 52.4,49.8 52.4,62.6 "/>
<path class="st0" d="M59.8,37.4h8c0.1,0,0.2-0.2,0.1-0.3l-6.1-6.1h-25l-6.2,6.2c0,0.1,0,0.1,0.1,0.2L57,37.4"/>
<path class="st0" d="M38,40.4c0,2.1-1.7,3.8-3.8,3.8c-2.1,0-3.8-1.7-3.8-3.8v-3"/>
<path class="st0" d="M45.5,40.4c0,2.1-1.7,3.8-3.8,3.8S38,42.5,38,40.4"/>
<path class="st0" d="M53,40.4c0,2.1-1.7,3.8-3.8,3.8c-2.1,0-3.8-1.7-3.8-3.8"/>
<path class="st0" d="M60.5,40.4c0,2.1-1.7,3.8-3.8,3.8c-2.1,0-3.8-1.7-3.8-3.8"/>
<path class="st0" d="M60.5,40.4c0,2.2,1.8,3.9,4,3.8c2-0.1,3.6-1.9,3.6-4l0-2.8"/>
<path class="st0" d="M-61.7,40.5"/>
</svg>
