<?xml version="1.0" encoding="utf-8"?>
<!-- Generator: Adobe Illustrator 23.0.2, SVG Export Plug-In . SVG Version: 6.00 Build 0)  -->
<svg version="1.1" id="Слой_1" xmlns="http://www.w3.org/2000/svg" xmlns:xlink="http://www.w3.org/1999/xlink" x="0px" y="0px"
	 viewBox="0 0 330 330" style="enable-background:new 0 0 330 330;" xml:space="preserve">
<style type="text/css">
	.st0{fill:none;stroke:#060809;stroke-width:3;stroke-miterlimit:10;}
</style>
<g>
	<path class="st0" d="M162.8,97.1c-0.2,2-1.2,11-7.8,20.1c-3.9,5.3-10.2,13.9-19,13.7c-8.2-0.1-13.9-7.7-18.3-13.7
		c-2.5-3.3-7.4-10-8.5-20.1c-0.5-4.8-1.7-16,6.2-24.9c7.9-8.9,19.1-8.9,20.6-8.9c0.8,0,13.8,0.4,21.9,11.2
		C164.1,82.9,163.2,92.2,162.8,97.1z"/>
	<path class="st0" d="M109.7,95.9c44.2-13.8,41.9-27,41.9-27"/>
	<path class="st0" d="M163.3,92.7c0,0-18.5-4.5-17.4-14.5"/>
	<path class="st0" d="M134.3,150.5"/>
	<path class="st0" d="M168.6,131.4c0,0,4.4-2.9,7.6-2.6c0.1,0,0.1-0.1,0-0.1c-0.8-0.6-4.6-3.6-6.1-5.7c-0.4-0.5,0.1-1.3,0.7-1.2
		c0.5,0,1.2,0,1.9-0.2c0,0,1.5-0.4,2.5-1.7c2.6-3-0.6-9-1.5-19.5c-0.2-1.7-0.2-3.1-0.2-3.9c0.5-4.2,2.2-15.6,10.8-22.8
		c1.8-1.5,4.4-3.6,8.5-4.1c6.8-0.9,12,3.9,12,3.9l5.5,4.1c0,0,7.5-3.5,11.9,11.4c4.4,14.9,0.6,30.9,0.6,30.9s0.6,2.2,2.2,1.7
		c0.7-0.2,1.5-0.4,2.1-0.5c0.7-0.1,1.2,0.5,1,1.2c-0.7,1.8-2.4,5-6.4,7.1c-0.1,0,0,0.1,0,0.1c1.1-0.1,5.3-0.2,9.6,2.3
		c7.1,4.2,11.1,13,10.3,23"/>
	<path class="st0" d="M185.3,140l3.3-5.5c0.3-0.4,0.9-0.5,1.2,0l7.7,11.5c0.4,0.6,1.3,0.6,1.7,0.1l8.6-11.2c0.3-0.4,0.9-0.4,1.2,0.1
		l7.9,14.5"/>
	<path class="st0" d="M206.5,88.1c-2.1,2.3-9.7,10.2-21.2,13.8c-0.4,0.1-0.7,0.5-0.6,0.9c0.2,3.2,1.6,16,13.4,18.4
		c11.2,2.3,13.8-16.3,14.4-22.8c0.2-2.2-0.1-4.4-0.9-6.5c-0.7-1.6-1.8-3.3-3.5-4.2C207.5,87.6,206.9,87.7,206.5,88.1z"/>
</g>
<g>
	<path d="M143,193.9h7.3c3.4,0,5.9,0.5,7.4,1.5s2.3,2.6,2.3,4.8c0,1.5-0.4,2.8-1.3,3.8s-2.1,1.6-3.7,1.9v0.2
		c3.9,0.7,5.9,2.7,5.9,6.2c0,2.3-0.8,4.1-2.3,5.4s-3.7,1.9-6.5,1.9h-9V193.9z M146,205h4.9c2.1,0,3.6-0.3,4.6-1s1.4-1.8,1.4-3.3
		c0-1.4-0.5-2.5-1.5-3.1s-2.7-1-4.9-1H146V205z M146,207.5v9.6h5.4c2.1,0,3.6-0.4,4.7-1.2s1.6-2.1,1.6-3.8c0-1.6-0.5-2.8-1.6-3.5
		s-2.7-1.1-4.9-1.1H146z"/>
	<path d="M168.8,208.3h5.3c2.4,0,4.3,0.5,5.4,1.4s1.8,2.3,1.8,4.1c0,1.9-0.6,3.4-1.9,4.4s-3.1,1.5-5.5,1.5h-8v-19.3h2.9V208.3z
		 M168.8,210.9v6.3h4.9c3.1,0,4.6-1.1,4.6-3.3c0-1.1-0.4-1.9-1.1-2.4s-1.9-0.7-3.7-0.7H168.8z M187.4,219.6h-2.9v-19.3h2.9V219.6z"
		/>
</g>
<path class="st0" d="M137.5,150.5"/>
<path class="st0" d="M87.3,167.3c0,0,0.2-13,5.5-21.3c4.9-7.7,18.7-9.3,20.8-9.5l0.4,0.2l8.2,22.3c0.1,0.2,0.4,0.3,0.5,0.1l10.5-8.7
	c0.1-0.1,0.2-0.3,0.1-0.4l-5.2-9.4l15.4,0l-5,9.3c-0.1,0.1,0,0.3,0.1,0.4l10.5,8.7c0.2,0.1,0.5,0.1,0.5-0.1l8.2-22.3
	c0.1-0.1,0.2-0.2,0.3-0.2c2.1,0.2,15.9,1.9,20.8,9.5c5.3,8.3,5.5,21.3,5.5,21.3"/>
</svg>
